<?xml version="1.0" encoding="UTF-8"?>
<svg version="1.1" xmlns="http://www.w3.org/2000/svg" width="1680" height="939">
<path d="M0 0 C1.2550383 -0.01052147 1.2550383 -0.01052147 2.53543091 -0.02125549 C5.23070697 -0.03870625 7.92576322 -0.04511067 10.62109375 -0.046875 C11.54209869 -0.04754974 12.46310364 -0.04822449 13.41201782 -0.04891968 C27.4914155 -0.03252387 41.2089271 0.45218188 55.05859375 3.203125 C55.98075684 3.38536621 56.90291992 3.56760742 57.85302734 3.75537109 C64.30004825 5.06668529 70.68585881 6.57068801 77.05859375 8.203125 C77.80270508 8.39100586 78.54681641 8.57888672 79.31347656 8.77246094 C97.7285701 13.51356579 115.32042661 21.25733301 132.05859375 30.203125 C133.20070313 30.80382812 134.3428125 31.40453125 135.51953125 32.0234375 C191.51400689 62.64741846 232.00004677 116.81574872 249.93359375 177.453125 C262.47513763 221.71465264 262.40887705 269.09117494 249.05859375 313.203125 C248.74583496 314.23783936 248.74583496 314.23783936 248.42675781 315.29345703 C234.39115026 361.07724217 206.00570373 403.78466847 168.05859375 433.203125 C166.62193359 434.36521484 166.62193359 434.36521484 165.15625 435.55078125 C133.62306197 460.64213263 95.63468745 477.00965873 56.05859375 484.203125 C55.23633301 484.35410645 54.41407227 484.50508789 53.56689453 484.66064453 C-11.85757224 496.05859242 -79.26909502 478.77118961 -133.19140625 440.921875 C-151.2088432 427.69630958 -168.5173233 412.12545329 -181.94140625 394.203125 C-182.65925293 393.25928955 -182.65925293 393.25928955 -183.39160156 392.29638672 C-222.28058893 340.9662697 -240.78169734 276.41836235 -232.34716797 212.23291016 C-227.32135863 177.34166013 -215.80446201 144.04628789 -196.94140625 114.203125 C-196.27496094 113.13964844 -195.60851562 112.07617188 -194.921875 110.98046875 C-185.49348898 96.40583537 -174.21386225 83.43752687 -161.94140625 71.203125 C-161.07644531 70.30335938 -160.21148438 69.40359375 -159.3203125 68.4765625 C-121.90136729 29.73882926 -69.46234574 8.57538595 -16.94140625 1.203125 C-15.69810547 1.026604 -14.45480469 0.85008301 -13.17382812 0.66821289 C-8.77836364 0.12808338 -4.42482429 0.024856 0 0 Z M-26.94140625 40.203125 C-27.77913574 40.36941406 -28.61686523 40.53570312 -29.47998047 40.70703125 C-68.18903767 48.51681675 -106.47301392 67.41975644 -133.94140625 96.203125 C-138.94140625 101.203125 -138.94140625 101.203125 -140.828125 102.94921875 C-177.05491604 137.35491437 -195.14461215 190.79910536 -196.86645508 239.71289062 C-198.13435625 296.77280034 -174.91842135 348.23333165 -136.734375 389.59375 C-131.5501132 394.95750763 -125.78063402 399.5765411 -119.94140625 404.203125 C-118.9875 404.98558594 -118.03359375 405.76804687 -117.05078125 406.57421875 C-73.76923304 441.25494648 -18.13957015 454.49585691 36.46484375 449.7421875 C55.47786904 447.61034235 74.4330814 442.60828817 92.05859375 435.203125 C92.96609375 434.82800781 93.87359375 434.45289063 94.80859375 434.06640625 C118.6564527 423.70567485 139.81889627 409.59112128 158.56689453 391.63183594 C159.94024871 390.31647282 161.32507615 389.0131165 162.7109375 387.7109375 C169.57170514 381.09945525 175.39198468 373.83704168 181.05859375 366.203125 C181.66018311 365.39270752 181.66018311 365.39270752 182.27392578 364.56591797 C213.53800041 321.96648435 227.41541384 267.20145554 219.87109375 214.828125 C219.34523917 211.60136309 218.72704564 208.40316065 218.05859375 205.203125 C217.88166992 204.3359082 217.70474609 203.46869141 217.52246094 202.57519531 C214.98771446 190.43555457 211.61304122 178.73675046 207.05859375 167.203125 C206.67646729 166.22448486 206.67646729 166.22448486 206.28662109 165.22607422 C200.04390995 149.48035202 191.52429336 134.52310633 181.05859375 121.203125 C180.4140625 120.3678125 179.76953125 119.5325 179.10546875 118.671875 C174.35044514 112.60641181 169.33371652 106.8208917 164.05859375 101.203125 C163.56649414 100.67702637 163.07439453 100.15092773 162.56738281 99.60888672 C134.69290156 70.05306046 97.32823701 50.5817389 57.93359375 41.453125 C57.08877441 41.25460937 56.24395508 41.05609375 55.37353516 40.8515625 C41.2472891 37.72014185 27.28466537 36.82281522 12.87109375 36.890625 C12.06188477 36.89244781 11.25267578 36.89427063 10.41894531 36.89614868 C-2.2542186 36.94407267 -14.506236 37.59222751 -26.94140625 40.203125 Z " fill="#282525" transform="translate(809.94140625,230.796875)"/>
<path d="M0 0 C2.38505481 2.73756407 4.4692316 5.66099856 6.5625 8.625 C7.16892334 9.46603271 7.77534668 10.30706543 8.40014648 11.17358398 C9.65908378 12.9213909 10.9136968 14.67232034 12.1640625 16.42626953 C13.88031064 18.83221207 15.60870062 21.22868787 17.34375 23.62109375 C20.03362462 27.33078948 22.71403286 31.0471773 25.39111328 34.76611328 C28.09012128 38.51359784 30.79538884 42.25655845 33.5 46 C34.58336304 47.49997854 35.66669638 48.99997854 36.75 50.5 C37.28625 51.2425 37.8225 51.985 38.375 52.75 C66 91 93.625 129.25 121.25 167.5 C121.78705566 168.24354736 122.32411133 168.98709473 122.87744141 169.75317383 C123.95289859 171.24240532 125.028097 172.73182373 126.10302734 174.22143555 C128.92969325 178.13782279 131.76173821 182.05017238 134.6015625 185.95703125 C135.19130859 186.76978516 135.78105469 187.58253906 136.38867188 188.41992188 C137.51591684 189.97321218 138.6447327 191.52536414 139.77539062 193.07617188 C146.34290548 202.13452675 149.26730647 208.55199825 148 220 C145.03575844 228.59630051 139.89014447 235.4534019 132 240 C124.38612569 243.61263223 115.83559694 244.50242802 107.75 241.875 C98.69880267 237.82578014 93.87083471 229.94466593 88.42724609 222.05078125 C85.89686101 218.41492174 83.28799362 214.83587027 80.6875 211.25 C79.5766289 209.71368194 78.46595356 208.17722231 77.35546875 206.640625 C76.80036621 205.87298828 76.24526367 205.10535156 75.67333984 204.31445312 C72.94736861 200.54406981 70.22378466 196.77196306 67.5 193 C66.41667856 191.49999141 65.33334521 189.99999142 64.25 188.5 C36.08333333 149.5 7.91666667 110.5 -20.25 71.5 C-20.78689453 70.75669434 -21.32378906 70.01338867 -21.87695312 69.24755859 C-22.95410924 67.75593717 -24.03093524 66.26407731 -25.10742188 64.77197266 C-27.90752873 60.89170337 -30.7142172 57.01644024 -33.53125 53.1484375 C-34.40233398 51.94960938 -34.40233398 51.94960938 -35.29101562 50.7265625 C-36.39173135 49.21197766 -37.49444219 47.69883974 -38.59960938 46.1875 C-45.75177454 36.33381278 -50.04520301 29.57317742 -49 17 C-47.23697071 8.78047156 -42.52950337 3.11913064 -36 -2 C-23.97355472 -9.05603434 -11.08837174 -8.59970976 0 0 Z " fill="#2A2727" transform="translate(801,396)"/>
<path d="M0 0 C7.08257835 4.69267493 11.15831897 10.90828583 13.609375 19.015625 C15.21623628 27.1784803 13.81006991 34.65812372 10 42 C4.90400599 49.37340727 -1.15550873 54.19466377 -10 56 C-19.333071 56.90945261 -27.16048184 55.1255639 -34.75 49.5 C-41.32036655 43.31887317 -44.77833043 34.49264763 -45.09765625 25.58984375 C-44.75342027 16.46070548 -41.5573096 9.898841 -35.33203125 3.20703125 C-25.38834633 -6.00851198 -11.66269187 -6.62787042 0 0 Z " fill="#262323" transform="translate(750,330)"/>
</svg>
